
<svg width="600" height="600" viewBox="0 0 600 600" xmlns="http://www.w3.org/2000/svg">
  <g fill="none" stroke="#3B82F6" stroke-width="0.5" opacity="0.15">
    <path d="M50,50 L100,50 L100,100 L150,100" />
    <path d="M150,100 L200,100 L200,150 L250,150" />
    <path d="M250,150 L300,150 L300,200 L350,200" />
    <path d="M350,200 L400,200 L400,250 L450,250" />
    <path d="M450,250 L500,250 L500,300 L550,300" />
    
    <path d="M50,550 L100,550 L100,500 L150,500" />
    <path d="M150,500 L200,500 L200,450 L250,450" />
    <path d="M250,450 L300,450 L300,400 L350,400" />
    <path d="M350,400 L400,400 L400,350 L450,350" />
    <path d="M450,350 L500,350 L500,300 L550,300" />
    
    <circle cx="50" cy="50" r="5" />
    <circle cx="100" cy="50" r="5" />
    <circle cx="100" cy="100" r="5" />
    <circle cx="150" cy="100" r="5" />
    <circle cx="200" cy="100" r="5" />
    <circle cx="200" cy="150" r="5" />
    <circle cx="250" cy="150" r="5" />
    <circle cx="300" cy="150" r="5" />
    <circle cx="300" cy="200" r="5" />
    <circle cx="350" cy="200" r="5" />
    <circle cx="400" cy="200" r="5" />
    <circle cx="400" cy="250" r="5" />
    <circle cx="450" cy="250" r="5" />
    <circle cx="500" cy="250" r="5" />
    <circle cx="500" cy="300" r="5" />
    <circle cx="550" cy="300" r="5" />
    
    <circle cx="50" cy="550" r="5" />
    <circle cx="100" cy="550" r="5" />
    <circle cx="100" cy="500" r="5" />
    <circle cx="150" cy="500" r="5" />
    <circle cx="200" cy="500" r="5" />
    <circle cx="200" cy="450" r="5" />
    <circle cx="250" cy="450" r="5" />
    <circle cx="300" cy="450" r="5" />
    <circle cx="300" cy="400" r="5" />
    <circle cx="350" cy="400" r="5" />
    <circle cx="400" cy="400" r="5" />
    <circle cx="400" cy="350" r="5" />
    <circle cx="450" cy="350" r="5" />
    <circle cx="500" cy="350" r="5" />
    
    <path d="M300,50 L300,100 L350,100" />
    <path d="M350,100 L400,100 L400,150 L450,150" />
    <path d="M450,150 L500,150 L500,200 L550,200" />
    
    <path d="M300,550 L300,500 L350,500" />
    <path d="M350,500 L400,500 L400,450 L450,450" />
    <path d="M450,450 L500,450 L500,400 L550,400" />
    
    <circle cx="300" cy="50" r="5" />
    <circle cx="300" cy="100" r="5" />
    <circle cx="350" cy="100" r="5" />
    <circle cx="400" cy="100" r="5" />
    <circle cx="400" cy="150" r="5" />
    <circle cx="450" cy="150" r="5" />
    <circle cx="500" cy="150" r="5" />
    <circle cx="500" cy="200" r="5" />
    <circle cx="550" cy="200" r="5" />
    
    <circle cx="300" cy="550" r="5" />
    <circle cx="300" cy="500" r="5" />
    <circle cx="350" cy="500" r="5" />
    <circle cx="400" cy="500" r="5" />
    <circle cx="400" cy="450" r="5" />
    <circle cx="450" cy="450" r="5" />
    <circle cx="500" cy="450" r="5" />
    <circle cx="500" cy="400" r="5" />
    <circle cx="550" cy="400" r="5" />
    
    <path d="M150,300 C200,310 250,290 300,300 C350,310 400,290 450,300" />
    <path d="M150,200 C200,210 250,190 300,200 C350,210 400,190 450,200" />
    <path d="M150,400 C200,410 250,390 300,400 C350,410 400,390 450,400" />
  </g>
</svg>
